<?xml version="1.0" standalone="no"?><!DOCTYPE svg PUBLIC "-//W3C//DTD SVG 1.1//EN" "http://www.w3.org/Graphics/SVG/1.1/DTD/svg11.dtd"><svg t="1534240245140" class="icon" style="" viewBox="0 0 1024 1024" version="1.1" xmlns="http://www.w3.org/2000/svg" p-id="1012" xmlns:xlink="http://www.w3.org/1999/xlink" width="200" height="200"><defs><style type="text/css"></style></defs><path d="M288.646821 556.595369m-199.456082 0a199.456082 199.456082 0 1 0 398.912164 0 199.456082 199.456082 0 1 0-398.912164 0Z" fill="#FFFFFF" p-id="1013"></path><path d="M288.646821 759.06211c-110.265344 0-200.961411-89.190739-202.46674-199.832415-0.752664-54.191841 19.569276-105.373025 57.202499-144.135244C181.015803 376.332231 231.820654 354.504961 285.636163 353.752297c54.191841-0.752664 105.373025 19.569276 144.135245 57.202499 38.76222 37.633223 60.589489 88.438074 61.342153 142.253583 1.505329 111.770673-88.061742 203.595737-199.832414 205.101066-0.752664 0.752664-1.881661 0.752664-2.634326 0.752665z m0-398.912165H286.012495c-52.31018 0.752664-101.609702 21.827269-138.113928 59.460492s-56.449835 87.309078-55.69717 139.619258c1.505329 108.383682 90.696068 195.316428 199.07975 193.434767 108.383682-1.505329 194.940096-90.696068 193.434766-199.07975-0.752664-52.31018-21.827269-101.609702-59.460492-138.113929-36.880559-35.37523-85.051084-55.320838-136.6086-55.320838z" fill="" p-id="1014"></path><path d="M288.646821 556.595369m-75.266446 0a75.266446 75.266446 0 1 0 150.532892 0 75.266446 75.266446 0 1 0-150.532892 0Z" fill="#d81e06" p-id="1015"></path><path d="M288.646821 637.883131c-44.783535 0-81.287762-36.504226-81.287762-81.287762 0-44.783535 36.504226-81.287762 81.287762-81.287762s81.287762 36.504226 81.287762 81.287762c0 44.783535-36.504226 81.287762-81.287762 81.287762z m0-150.15656c-38.009555 0-68.868798 30.859243-68.868798 68.868798 0 38.009555 30.859243 68.868798 68.868798 68.868799S357.515619 594.604925 357.515619 556.595369c0-38.009555-30.859243-68.868798-68.868798-68.868798z" fill="#d81e06" p-id="1016"></path><path d="M733.84785 556.595369m-199.456082 0a199.456082 199.456082 0 1 0 398.912164 0 199.456082 199.456082 0 1 0-398.912164 0Z" fill="#FFFFFF" p-id="1017"></path><path d="M733.84785 759.06211c-110.265344 0-200.961411-89.190739-202.46674-199.832415-0.752664-54.191841 19.569276-105.373025 57.202499-144.135244 37.633223-38.76222 88.438074-60.589489 142.253583-61.342154 54.191841-0.752664 105.373025 19.569276 144.135245 57.202499 38.76222 37.633223 60.589489 88.438074 61.342153 142.253583 1.505329 111.770673-88.061742 203.595737-199.832414 205.101066-0.752664 0.752664-1.881661 0.752664-2.634326 0.752665z m0-398.912165h-2.634326c-52.31018 0.752664-101.609702 21.827269-138.113928 59.460492s-56.449835 87.309078-55.69717 139.619258c1.505329 108.383682 90.696068 195.316428 199.07975 193.434767 108.383682-1.505329 194.940096-90.696068 193.434766-199.07975-0.752664-52.31018-21.827269-101.609702-59.460492-138.113929-36.504226-35.37523-85.051084-55.320838-136.6086-55.320838z" fill="" p-id="1018"></path><path d="M733.84785 556.595369m-75.266446 0a75.266446 75.266446 0 1 0 150.532892 0 75.266446 75.266446 0 1 0-150.532892 0Z" fill="" p-id="1019"></path><path d="M733.84785 637.883131c-44.783535 0-81.287762-36.504226-81.287762-81.287762 0-44.783535 36.504226-81.287762 81.287762-81.287762 44.783535 0 81.287762 36.504226 81.287762 81.287762 0 44.783535-36.504226 81.287762-81.287762 81.287762z m0-150.15656c-38.009555 0-68.868798 30.859243-68.868798 68.868798 0 38.009555 30.859243 68.868798 68.868798 68.868799 38.009555 0 68.868798-30.859243 68.868798-68.868799 0-38.009555-30.859243-68.868798-68.868798-68.868798z" fill="" p-id="1020"></path><path d="M101.23337 305.205439l819.651599-1.505329-409.449467 254.024256z" fill="" p-id="1021"></path></svg>