<?xml version="1.0" standalone="no"?><!DOCTYPE svg PUBLIC "-//W3C//DTD SVG 1.1//EN" "http://www.w3.org/Graphics/SVG/1.1/DTD/svg11.dtd"><svg t="1534240249025" class="icon" style="" viewBox="0 0 1024 1024" version="1.1" xmlns="http://www.w3.org/2000/svg" p-id="1143" xmlns:xlink="http://www.w3.org/1999/xlink" width="200" height="200"><defs><style type="text/css"></style></defs><path d="M512.564498 870.45645m-63.976479 0a63.976479 63.976479 0 1 0 127.952959 0 63.976479 63.976479 0 1 0-127.952959 0Z" fill="#d81e06" p-id="1144"></path><path d="M512.564498 938.572584c-17.687615 0-34.622565-6.77398-47.417861-19.192944-27.095921-26.343256-27.472253-69.621463-1.128996-96.341051 26.343256-27.095921 69.621463-27.472253 96.341051-1.128997 13.171628 12.795296 20.32194 29.730246 20.698272 47.794193 0.376332 18.063947-6.77398 35.37523-19.192943 48.546858-12.795296 13.171628-29.730246 20.32194-47.794194 20.698273-0.752664-0.376332-1.128997-0.376332-1.505329-0.376332z m0-127.576627c-15.429621 0-31.235575 6.021316-42.901874 18.063947-22.956266 23.708931-22.579934 61.718486 1.128997 84.674752 11.289967 11.289967 26.719588 17.311283 42.525542 16.934951 15.805954-0.376332 30.859243-6.77398 42.14921-18.063947s17.311283-26.719588 16.93495-42.525542c-0.376332-15.805954-6.77398-30.859243-18.063947-42.14921-11.666299-11.666299-26.719588-16.93495-41.772878-16.934951z" fill="#d81e06" p-id="1145"></path><path d="M589.712606 238.594634m-151.661889 0a151.661889 151.661889 0 1 0 303.323778 0 151.661889 151.661889 0 1 0-303.323778 0Z" fill="#FFFFFF" p-id="1146"></path><path d="M589.712606 394.019846c-40.643881 0-79.406101-15.429621-108.383683-44.030871-29.730246-28.977582-46.665197-67.739802-47.041529-109.51268s15.053289-80.91143 44.030871-110.641675c59.836825-61.342154 158.435869-62.847483 220.154355-3.010658 61.342154 59.836825 62.847483 158.435869 3.010658 220.154355-28.977582 29.730246-67.739802 46.665197-109.512679 47.041529h-2.257993z m0-302.947446c-38.385888 0-76.771775 15.053289-105.749357 44.407203-27.472253 28.224917-42.14921 65.481808-41.772878 104.62036 0.376332 39.514884 16.182286 76.019111 44.407203 103.491364 28.224917 27.472253 65.105476 42.14921 104.620361 41.772877 39.514884-0.376332 76.019111-16.182286 103.491363-44.407203 56.826167-58.331496 55.320838-151.661889-2.634326-208.488056-28.224917-27.472253-65.481808-41.396545-102.362366-41.396545z" fill="" p-id="1147"></path><path d="M812.877619 498.640206m-122.307975 0a122.307975 122.307975 0 1 0 244.61595 0 122.307975 122.307975 0 1 0-244.61595 0Z" fill="#FFFFFF" p-id="1148"></path><path d="M812.877619 625.087835c-31.98824 0-63.600147-12.042631-88.061742-35.751562-50.052187-48.546858-51.181183-129.081955-2.257994-178.757809 48.546858-50.052187 129.081955-51.181183 178.75781-2.257994 50.052187 48.546858 51.181183 129.081955 2.257993 178.75781-24.837927 25.214259-57.578831 38.009555-90.696067 38.009555z m0-244.61595c-30.859243 0-61.718486 12.042631-84.674752 35.751562-45.5362 46.665197-44.407203 121.555311 2.257993 167.091511 46.665197 45.5362 121.555311 44.407203 167.09151-2.257994 45.5362-46.665197 44.407203-121.555311-2.257993-167.09151-22.956266-22.203602-52.686512-33.493569-82.416758-33.493569z" fill="" p-id="1149"></path><path d="M712.773245 759.438442m-85.803748 0a85.803749 85.803749 0 1 0 171.607497 0 85.803749 85.803749 0 1 0-171.607497 0Z" fill="#FFFFFF" p-id="1150"></path><path d="M712.773245 849.381845c-23.708931 0-45.912532-9.031974-62.47115-25.590592-35.37523-34.622565-36.127894-91.448732-1.881661-127.200294s91.448732-36.127894 127.200294-1.881661c35.37523 34.622565 36.127894 91.448732 1.881661 127.200294-16.558618 17.311283-39.138552 26.719588-63.223815 27.095921-0.752664 0.376332-1.128997 0.376332-1.505329 0.376332z m0-171.231165c-21.074605 0-42.525542 8.279309-58.331496 24.461595-31.235575 32.364572-30.482911 83.922087 1.505329 115.157663 15.429621 15.053289 35.37523 22.956266 56.826167 22.956266h1.128997c21.827269-0.376332 42.14921-9.031974 57.202499-24.837928 31.235575-32.364572 30.482911-83.922087-1.505329-115.157662-15.805954-15.053289-36.504226-22.579934-56.826167-22.579934z" fill="" p-id="1151"></path><path d="M283.001838 552.455715m-191.929438 0a191.929438 191.929438 0 1 0 383.858875 0 191.929438 191.929438 0 1 0-383.858875 0Z" fill="" p-id="1152"></path><path d="M283.001838 748.524807c-49.299522 0-98.599044-18.440279-136.984932-55.69717-37.633223-36.504226-58.707828-85.427416-59.460493-138.113929-0.752664-52.31018 19.192944-101.986035 55.69717-139.619257 36.504226-37.633223 85.427416-58.707828 138.113929-59.460493 52.686512-0.752664 101.986035 19.192944 139.619258 55.69717 77.52444 75.642778 79.406101 199.832415 3.763322 277.356854-38.385888 39.891216-89.567071 59.836825-140.748254 59.836825z m0-384.235208h-2.634326c-50.052187 0.752664-97.093716 20.698273-132.092613 56.826167s-53.815509 83.545755-53.062845 133.597942c0.752664 50.052187 20.698273 97.093716 56.826167 132.092613 74.137449 72.255788 193.434767 70.750459 265.690555-3.763322 72.255788-74.137449 70.750459-193.434767-3.763322-265.690555-35.37523-34.246233-81.664094-53.062845-130.963616-53.062845z" fill="" p-id="1153"></path></svg>