<?xml version="1.0" standalone="no"?><!DOCTYPE svg PUBLIC "-//W3C//DTD SVG 1.1//EN" "http://www.w3.org/Graphics/SVG/1.1/DTD/svg11.dtd"><svg t="1534240238871" class="icon" style="" viewBox="0 0 1024 1024" version="1.1" xmlns="http://www.w3.org/2000/svg" p-id="894" xmlns:xlink="http://www.w3.org/1999/xlink" width="200" height="200"><defs><style type="text/css"></style></defs><path d="M684.548328 514.822492m-193.058435 0a193.058434 193.058434 0 1 0 386.116869 0 193.058434 193.058434 0 1 0-386.116869 0Z" fill="#FFFFFF" p-id="895"></path><path d="M684.548328 726.321205c-116.662992 0-211.875046-94.835722-211.875046-211.875045s94.835722-211.875046 211.875046-211.875046 211.875046 94.835722 211.875046 211.875046-95.212054 211.875046-211.875046 211.875045z m0-385.740536c-95.964719 0-174.241823 78.277104-174.241823 174.241823 0 95.964719 78.277104 174.241823 174.241823 174.241823s174.241823-78.277104 174.241823-174.241823c0-96.341051-78.277104-174.241823-174.241823-174.241823z" fill="" p-id="896"></path><path d="M332.30136 514.822492m-193.058435 0a193.058434 193.058434 0 1 0 386.116869 0 193.058434 193.058434 0 1 0-386.116869 0Z" fill="#d81e06" p-id="897"></path><path d="M332.30136 726.321205c-116.662992 0-211.875046-94.835722-211.875046-211.875045s94.835722-211.875046 211.875046-211.875046 211.875046 94.835722 211.875046 211.875046S448.964351 726.321205 332.30136 726.321205z m0-385.740536c-95.964719 0-174.241823 78.277104-174.241823 174.241823 0 95.964719 78.277104 174.241823 174.241823 174.241823s174.241823-78.277104 174.241823-174.241823c0-96.341051-78.277104-174.241823-174.241823-174.241823z" fill="" p-id="898"></path></svg>